<svg xmlns="http://www.w3.org/2000/svg" width="137.573" height="32.48" viewBox="0 0 4402.195 1039.327"><style>.bg{fill:#f2f2f2}.text{fill:#000;stroke-width:0}@media (prefers-color-scheme:dark){.bg{fill:#262626}.text{fill:#fff;stroke-width:0}}</style><path d="M0 0h4402.195v1039.327H0z" class="bg"/><path d="M414.115 640c-70.31-78.56-172.48-128-286.2-128h-128v256h128c113.72 0 215.89-49.44 286.2-128" style="fill:#864ab3"/><path d="M127.905 0h-128v256h128c70.69 0 128 57.31 128 128s-57.31 128-128 128c113.72 0 215.89 49.44 286.2 128 60.81-67.94 97.78-157.65 97.78-256 0-212.08-171.92-384-383.99-384z" style="fill:#e600bb"/><path d="M414.115 640c-70.31 78.56-172.48 128-286.2 128 70.69 0 128 57.31 128 128v128h255.99V896c0-98.35-36.98-188.06-97.78-256z" style="fill:#168ee6"/><path d="M4084.085 496.64c-196.75 0-318.16 102.4-318.16 271.36s121.41 271.36 318.16 271.36 318.16-102.4 318.16-271.36-121.41-271.36-318.16-271.36m0 465.19c-139.7 0-228.93-69.49-228.93-193.83s89.96-193.83 228.93-193.83 228.2 69.49 228.2 193.83-89.23 193.83-228.2 193.83m-524.42-61.44L3176.405 512h-93.62v512h84.85V620.25l400.08 403.75h77.53V512h-85.58zM2867.025 512h87.77v512h-87.77zm-460.06 293.3-237.7-293.3h-95.09v512h84.85V631.22l243.56 295.5h5.12l243.55-295.5V1024h87.77V512h-94.35zm-548.55-464.58h-122.88l-114.1 113.37h71.68zm-327.67 462.26h349.61v-76.8h-349.61V589.41h415.44v-76.8h-502.48v512h509.79v-76.8h-422.75zm-207.72-127.87c0-106.06-87.77-163.11-206.99-163.11h-348.15v512h87.77V838.22h215.76l158.72 185.78h108.25l-166.03-190.17c89.23-16.09 150.67-70.22 150.67-158.72m-468.1 87.77V588.8h255.26c73.14 0 122.88 23.41 122.88 87.04s-49.74 87.04-122.88 87.04z" class="text"/></svg>
