<svg xmlns="http://www.w3.org/2000/svg" xmlns:xlink="http://www.w3.org/1999/xlink" xml:space="preserve" viewBox="0 0 2800 2800"><style>.st53{clip-path:url(#SVGID_2_);fill:#e87d23}.st156,.st205,.st66,.st82{clip-path:url(#SVGID_2_);fill:#a87a1a}.st156,.st205,.st82{fill:#e8b321}.st156,.st205{fill:#e6d320}.st205{fill:#6c388d}</style><path id="Capa_2" d="M-45.9-45.9h2891.7v2891.7H-45.9z" style="fill:#fff"/><g id="Capa_1"><defs><path id="SVGID_1_" d="M-45.9-45.9h2891.7v2891.7H-45.9z"/></defs><clipPath id="SVGID_2_"><use xlink:href="#SVGID_1_" style="overflow:visible"/></clipPath><path d="M-65.3 190h279.1L74.3-78.9z" style="clip-path:url(#SVGID_2_);fill:#772784"/><path d="M213.8 190h279.1L353.4-78.9z" style="clip-path:url(#SVGID_2_);fill:#8b3c8f"/><path d="M492.9 190H772L632.5-78.9z" style="clip-path:url(#SVGID_2_);fill:#90348b"/><path d="M772 190h279.1L911.6-78.9z" style="clip-path:url(#SVGID_2_);fill:#ac3a81"/><path d="M1051.1 190h279.1L1190.7-78.9z" style="clip-path:url(#SVGID_2_);fill:#a01f51"/><path d="M1330.2 190h279.1L1469.8-78.9z" style="clip-path:url(#SVGID_2_);fill:#b21d32"/><path d="M1609.3 190h279.1L1748.9-78.9z" style="clip-path:url(#SVGID_2_);fill:#b41e1e"/><path d="M1888.4 190h279.1L2028-78.9z" style="clip-path:url(#SVGID_2_);fill:#b21b1d"/><path d="M2167.5 190h279.1L2307.1-78.9z" style="clip-path:url(#SVGID_2_);fill:#ac1f1c"/><path d="M2446.6 190h279.1L2586.2-78.9z" style="clip-path:url(#SVGID_2_);fill:#a94528"/><path d="M2725.7 190h279.1L2865.3-78.9z" style="clip-path:url(#SVGID_2_);fill:#892616"/><path d="M-65.3 458.9h279.1L74.3 190z" style="clip-path:url(#SVGID_2_);fill:#7b378c"/><path d="M213.8 458.9h279.1L353.4 190z" style="clip-path:url(#SVGID_2_);fill:#8a4694"/><path d="M492.9 458.9H772L632.5 190z" style="clip-path:url(#SVGID_2_);fill:#8f3c8f"/><path d="M772 458.9h279.1L911.6 190z" style="clip-path:url(#SVGID_2_);fill:#c04a95"/><path d="M1051.1 458.9h279.1L1190.7 190z" style="clip-path:url(#SVGID_2_);fill:#bb1c53"/><path d="M1330.2 458.9h279.1L1469.8 190z" style="clip-path:url(#SVGID_2_);fill:#c3192b"/><path d="M1609.3 458.9h279.1L1748.9 190z" style="clip-path:url(#SVGID_2_);fill:#d1191b"/><path d="M1888.4 458.9h279.1L2028 190z" style="clip-path:url(#SVGID_2_);fill:#d9471c"/><path d="M2167.5 458.9h279.1L2307.1 190z" style="clip-path:url(#SVGID_2_);fill:#e03f28"/><path d="M2446.6 458.9h279.1L2586.2 190z" style="clip-path:url(#SVGID_2_);fill:#df5c36"/><path d="M2725.7 458.9h279.1L2865.3 190z" style="clip-path:url(#SVGID_2_);fill:#b64825"/><path d="M-65.3 727.8h279.1L74.3 458.9z" style="clip-path:url(#SVGID_2_);fill:#8f4594"/><path d="M213.8 727.8h279.1L353.4 458.9z" style="clip-path:url(#SVGID_2_);fill:#8e4091"/><path d="M492.9 727.8H772L632.5 458.9z" style="clip-path:url(#SVGID_2_);fill:#9d4392"/><path d="M772 727.8h279.1L911.6 458.9z" style="clip-path:url(#SVGID_2_);fill:#b62582"/><path d="M1051.1 727.8h279.1l-139.5-268.9z" style="clip-path:url(#SVGID_2_);fill:#d61d5b"/><path d="M1330.2 727.8h279.1l-139.5-268.9z" style="clip-path:url(#SVGID_2_);fill:#cf1521"/><path d="M1609.3 727.8h279.1l-139.5-268.9z" style="clip-path:url(#SVGID_2_);fill:#e2381f"/><path d="M1888.4 727.8h279.1L2028 458.9z" style="clip-path:url(#SVGID_2_);fill:#e2431c"/><path d="M2167.5 727.8h279.1l-139.5-268.9z" style="clip-path:url(#SVGID_2_);fill:#e76727"/><path d="M2446.6 727.8h279.1l-139.5-268.9z" style="clip-path:url(#SVGID_2_);fill:#d0531d"/><path d="M2725.7 727.8h279.1l-139.5-268.9z" style="clip-path:url(#SVGID_2_);fill:#ae3d17"/><path d="M-65.3 996.7h279.1L74.3 727.8z" style="clip-path:url(#SVGID_2_);fill:#7a4393"/><path d="M213.8 996.7h279.1L353.4 727.8z" style="clip-path:url(#SVGID_2_);fill:#823e90"/><path d="M492.9 996.7H772L632.5 727.8z" style="clip-path:url(#SVGID_2_);fill:#9b358b"/><path d="M772 996.7h279.1L911.6 727.8z" style="clip-path:url(#SVGID_2_);fill:#d03b8e"/><path d="M1051.1 996.7h279.1l-139.5-268.9z" style="clip-path:url(#SVGID_2_);fill:#e13c20"/><path d="M1330.2 996.7h279.1l-139.5-268.9z" style="clip-path:url(#SVGID_2_);fill:#e2301f"/><path d="M1609.3 996.7h279.1l-139.5-268.9z" style="clip-path:url(#SVGID_2_);fill:#e84926"/><path d="M1888.4 996.7h279.1L2028 727.8z" style="clip-path:url(#SVGID_2_);fill:#e86020"/><path d="M2167.5 996.7h279.1l-139.5-268.9z" style="clip-path:url(#SVGID_2_);fill:#ed7c2b"/><path d="M2446.6 996.7h279.1l-139.5-268.9z" style="clip-path:url(#SVGID_2_);fill:#d85b26"/><path d="M2725.7 996.7h279.1l-139.5-268.9z" style="clip-path:url(#SVGID_2_);fill:#be4d1d"/><path d="M-65.3 1265.6h279.1L74.3 996.7z" style="clip-path:url(#SVGID_2_);fill:#633a8e"/><path d="M213.8 1265.6h279.1L353.4 996.7z" style="clip-path:url(#SVGID_2_);fill:#734494"/><path d="M492.9 1265.6H772L632.5 996.7z" style="clip-path:url(#SVGID_2_);fill:#98277c"/><path d="M772 1265.6h279.1L911.6 996.7z" style="clip-path:url(#SVGID_2_);fill:#cc1e45"/><path d="M1051.1 1265.6h279.1l-139.5-268.9z" style="clip-path:url(#SVGID_2_);fill:#e9592c"/><path d="M1330.2 1265.6h279.1l-139.5-268.9z" style="clip-path:url(#SVGID_2_);fill:#e95224"/><path d="M1609.3 1265.6h279.1l-139.5-268.9z" style="clip-path:url(#SVGID_2_);fill:#d75724"/><path d="M1888.4 1265.6h279.1L2028 996.7z" style="clip-path:url(#SVGID_2_);fill:#f08338"/><path d="M2167.5 1265.6h279.1l-139.5-268.9z" class="st53"/><path d="M2446.6 1265.6h279.1l-139.5-268.9z" style="clip-path:url(#SVGID_2_);fill:#d97220"/><path d="M2725.7 1265.6h279.1l-139.5-268.9z" style="clip-path:url(#SVGID_2_);fill:#c55a1c"/><path d="M-65.3 1534.4h279.1L74.3 1265.6z" style="clip-path:url(#SVGID_2_);fill:#364c9b"/><path d="M213.8 1534.4h279.1l-139.5-268.8z" style="clip-path:url(#SVGID_2_);fill:#515ea7"/><path d="M492.9 1534.4H772l-139.5-268.8z" style="clip-path:url(#SVGID_2_);fill:#947786"/><path d="M772 1534.4h279.1l-139.5-268.8z" style="clip-path:url(#SVGID_2_);fill:#e5a047"/><path d="M1051.1 1534.4h279.1l-139.5-268.8z" style="clip-path:url(#SVGID_2_);fill:#f59b38"/><path d="M1330.2 1534.4h279.1l-139.5-268.8z" style="clip-path:url(#SVGID_2_);fill:#e98c26"/><path d="M1609.3 1534.4h279.1l-139.5-268.8z" style="clip-path:url(#SVGID_2_);fill:#ed7b31"/><path d="M1888.4 1534.4h279.1L2028 1265.6z" style="clip-path:url(#SVGID_2_);fill:#da8726"/><path d="M2167.5 1534.4h279.1l-139.5-268.8z" style="clip-path:url(#SVGID_2_);fill:#d49128"/><path d="M2446.6 1534.4h279.1l-139.5-268.8z" style="clip-path:url(#SVGID_2_);fill:#d07937"/><path d="M2725.7 1534.4h279.1l-139.5-268.8z" class="st66"/><path d="M-65.3 1803.3h279.1L74.3 1534.4z" style="clip-path:url(#SVGID_2_);fill:#3763ad"/><path d="M213.8 1803.3h279.1l-139.5-268.9z" style="clip-path:url(#SVGID_2_);fill:#3a87c2"/><path d="M492.9 1803.3H772l-139.5-268.9z" style="clip-path:url(#SVGID_2_);fill:#a1c743"/><path d="M772 1803.3h279.1l-139.5-268.9z" style="clip-path:url(#SVGID_2_);fill:#eee542"/><path d="M1051.1 1803.3h279.1l-139.5-268.9z" style="clip-path:url(#SVGID_2_);fill:#e9d322"/><path d="M1330.2 1803.3h279.1l-139.5-268.9z" style="clip-path:url(#SVGID_2_);fill:#e08d23"/><path d="M1609.3 1803.3h279.1l-139.5-268.9z" style="clip-path:url(#SVGID_2_);fill:#d5921e"/><path d="M1888.4 1803.3h279.1L2028 1534.4z" style="clip-path:url(#SVGID_2_);fill:#e0a02b"/><path d="M2167.5 1803.3h279.1l-139.5-268.9z" style="clip-path:url(#SVGID_2_);fill:#cf9522"/><path d="M2446.6 1803.3h279.1l-139.5-268.9z" style="clip-path:url(#SVGID_2_);fill:#b77a1c"/><path d="M2725.7 1803.3h279.1l-139.5-268.9z" class="st66"/><path d="M-65.3 2072.2h279.1L74.3 1803.3z" style="clip-path:url(#SVGID_2_);fill:#41bee1"/><path d="M213.8 2072.2h279.1l-139.5-268.9z" style="clip-path:url(#SVGID_2_);fill:#4db8a0"/><path d="M492.9 2072.2H772l-139.5-268.9z" style="clip-path:url(#SVGID_2_);fill:#88be3e"/><path d="M772 2072.2h279.1l-139.5-268.9z" style="clip-path:url(#SVGID_2_);fill:#cad633"/><path d="M1051.1 2072.2h279.1l-139.5-268.9z" style="clip-path:url(#SVGID_2_);fill:#eede20"/><path d="M1330.2 2072.2h279.1l-139.5-268.9z" class="st82"/><path d="M1609.3 2072.2h279.1l-139.5-268.9z" class="st82"/><path d="M1888.4 2072.2h279.1L2028 1803.3z" style="clip-path:url(#SVGID_2_);fill:#f1e746"/><path d="M2167.5 2072.2h279.1l-139.5-268.9z" style="clip-path:url(#SVGID_2_);fill:#dcb029"/><path d="M2446.6 2072.2h279.1l-139.5-268.9z" style="clip-path:url(#SVGID_2_);fill:#ccb125"/><path d="M2725.7 2072.2h279.1l-139.5-268.9z" style="clip-path:url(#SVGID_2_);fill:#b47e20"/><path d="M-65.3 2341.1h279.1L74.3 2072.2z" style="clip-path:url(#SVGID_2_);fill:#2daec8"/><path d="M213.8 2341.1h279.1l-139.5-268.9z" style="clip-path:url(#SVGID_2_);fill:#3fb182"/><path d="M492.9 2341.1H772l-139.5-268.9z" style="clip-path:url(#SVGID_2_);fill:#70b95e"/><path d="M772 2341.1h279.1l-139.5-268.9z" style="clip-path:url(#SVGID_2_);fill:#91c029"/><path d="M1051.1 2341.1h279.1l-139.5-268.9z" style="clip-path:url(#SVGID_2_);fill:#bacf2d"/><path d="M1330.2 2341.1h279.1l-139.5-268.9z" style="clip-path:url(#SVGID_2_);fill:#f1e127"/><path d="M1609.3 2341.1h279.1l-139.5-268.9z" style="clip-path:url(#SVGID_2_);fill:#e1df3c"/><path d="M1888.4 2341.1h279.1L2028 2072.2z" style="clip-path:url(#SVGID_2_);fill:#d9a521"/><path d="M2167.5 2341.1h279.1l-139.5-268.9z" style="clip-path:url(#SVGID_2_);fill:#d4c52f"/><path d="M2446.6 2341.1h279.1l-139.5-268.9z" style="clip-path:url(#SVGID_2_);fill:#ac8518"/><path d="M2725.7 2341.1h279.1l-139.5-268.9z" style="clip-path:url(#SVGID_2_);fill:#94861b"/><path d="M-65.3 2610h279.1L74.3 2341.1z" style="clip-path:url(#SVGID_2_);fill:#57bdb6"/><path d="M213.8 2610h279.1l-139.5-268.9z" style="clip-path:url(#SVGID_2_);fill:#3eb181"/><path d="M492.9 2610H772l-139.5-268.9z" style="clip-path:url(#SVGID_2_);fill:#45ad42"/><path d="M772 2610h279.1l-139.5-268.9z" style="clip-path:url(#SVGID_2_);fill:#6bb53c"/><path d="M1051.1 2610h279.1l-139.5-268.9z" style="clip-path:url(#SVGID_2_);fill:#94c125"/><path d="M1330.2 2610h279.1l-139.5-268.9z" style="clip-path:url(#SVGID_2_);fill:#a5c72c"/><path d="M1609.3 2610h279.1l-139.5-268.9z" style="clip-path:url(#SVGID_2_);fill:#d0d836"/><path d="M1888.4 2610h279.1L2028 2341.1z" style="clip-path:url(#SVGID_2_);fill:#e4da27"/><path d="M2167.5 2610h279.1l-139.5-268.9z" style="clip-path:url(#SVGID_2_);fill:#d1c821"/><path d="M2446.6 2610h279.1l-139.5-268.9z" style="clip-path:url(#SVGID_2_);fill:#c3b625"/><path d="M2725.7 2610h279.1l-139.5-268.9z" style="clip-path:url(#SVGID_2_);fill:#af8e1a"/><path d="M-65.3 2878.9h279.1L74.3 2610z" style="clip-path:url(#SVGID_2_);fill:#2fb092"/><path d="M213.8 2878.9h279.1L353.4 2610z" style="clip-path:url(#SVGID_2_);fill:#2eae76"/><path d="M492.9 2878.9H772L632.5 2610z" style="clip-path:url(#SVGID_2_);fill:#44ad43"/><path d="M772 2878.9h279.1L911.6 2610z" style="clip-path:url(#SVGID_2_);fill:#55af34"/><path d="M1051.1 2878.9h279.1L1190.7 2610z" style="clip-path:url(#SVGID_2_);fill:#81bb2f"/><path d="M1330.2 2878.9h279.1L1469.8 2610z" style="clip-path:url(#SVGID_2_);fill:#a1c62d"/><path d="M1609.3 2878.9h279.1L1748.9 2610z" style="clip-path:url(#SVGID_2_);fill:#b8cc2c"/><path d="M1888.4 2878.9h279.1L2028 2610z" style="clip-path:url(#SVGID_2_);fill:#9ebb1e"/><path d="M2167.5 2878.9h279.1L2307.1 2610z" style="clip-path:url(#SVGID_2_);fill:#a1ae1d"/><path d="M2446.6 2878.9h279.1L2586.2 2610z" style="clip-path:url(#SVGID_2_);fill:#a29e1b"/><path d="M2725.7 2878.9h279.1L2865.3 2610z" style="clip-path:url(#SVGID_2_);fill:#998e25"/><path d="M2865.3 2610h-279.1l139.5 268.9z" style="clip-path:url(#SVGID_2_);fill:#bbad45"/><path d="M2586.2 2610h-279.1l139.5 268.9z" style="clip-path:url(#SVGID_2_);fill:#c0ab21"/><path d="M2307.1 2610H2028l139.5 268.9z" style="clip-path:url(#SVGID_2_);fill:#cbcc25"/><path d="M2028 2610h-279.1l139.5 268.9z" style="clip-path:url(#SVGID_2_);fill:#a5c729"/><path d="M1748.9 2610h-279.1l139.5 268.9z" style="clip-path:url(#SVGID_2_);fill:#a7c828"/><path d="M1469.8 2610h-279.1l139.5 268.9z" style="clip-path:url(#SVGID_2_);fill:#95bf1f"/><path d="M1190.7 2610H911.6l139.5 268.9z" style="clip-path:url(#SVGID_2_);fill:#76b833"/><path d="M911.6 2610H632.5L772 2878.9z" style="clip-path:url(#SVGID_2_);fill:#59b036"/><path d="M632.5 2610H353.4l139.5 268.9z" style="clip-path:url(#SVGID_2_);fill:#42ad48"/><path d="M353.4 2610H74.3l139.5 268.9z" style="clip-path:url(#SVGID_2_);fill:#2dad76"/><path d="M74.3 2610h-279.1l139.5 268.9z" style="clip-path:url(#SVGID_2_);fill:#2aaa90"/><path d="M2865.3 2341.1h-279.1l139.5 268.9z" style="clip-path:url(#SVGID_2_);fill:#ad8816"/><path d="M2586.2 2341.1h-279.1l139.5 268.9z" style="clip-path:url(#SVGID_2_);fill:#d4c329"/><path d="M2307.1 2341.1H2028l139.5 268.9z" style="clip-path:url(#SVGID_2_);fill:#dcdd3f"/><path d="M2028 2341.1h-279.1l139.5 268.9z" style="clip-path:url(#SVGID_2_);fill:#dadc34"/><path d="M1748.9 2341.1h-279.1l139.5 268.9z" style="clip-path:url(#SVGID_2_);fill:#dddd26"/><path d="M1469.8 2341.1h-279.1l139.5 268.9z" style="clip-path:url(#SVGID_2_);fill:#c7d42f"/><path d="M1190.7 2341.1H911.6l139.5 268.9z" style="clip-path:url(#SVGID_2_);fill:#7ab92c"/><path d="M911.6 2341.1H632.5L772 2610z" style="clip-path:url(#SVGID_2_);fill:#5fb240"/><path d="M632.5 2341.1H353.4L492.9 2610z" style="clip-path:url(#SVGID_2_);fill:#6ab972"/><path d="M353.4 2341.1H74.3L213.8 2610z" style="clip-path:url(#SVGID_2_);fill:#47b8a6"/><path d="M74.3 2341.1h-279.1L-65.3 2610z" style="clip-path:url(#SVGID_2_);fill:#4cbbbc"/><path d="M2865.3 2072.2h-279.1l139.5 268.9z" style="clip-path:url(#SVGID_2_);fill:#c2b633"/><path d="M2586.2 2072.2h-279.1l139.5 268.9z" style="clip-path:url(#SVGID_2_);fill:#bfa919"/><path d="M2307.1 2072.2H2028l139.5 268.9z" style="clip-path:url(#SVGID_2_);fill:#f2d841"/><path d="M2028 2072.2h-279.1l139.5 268.9z" style="clip-path:url(#SVGID_2_);fill:#dccf1f"/><path d="M1748.9 2072.2h-279.1l139.5 268.9z" style="clip-path:url(#SVGID_2_);fill:#e9e33c"/><path d="M1469.8 2072.2h-279.1l139.5 268.9z" style="clip-path:url(#SVGID_2_);fill:#e4e030"/><path d="M1190.7 2072.2H911.6l139.5 268.9z" style="clip-path:url(#SVGID_2_);fill:#a8c825"/><path d="M911.6 2072.2H632.5L772 2341.1z" style="clip-path:url(#SVGID_2_);fill:#70b62e"/><path d="M632.5 2072.2H353.4l139.5 268.9z" style="clip-path:url(#SVGID_2_);fill:#45ae58"/><path d="M353.4 2072.2H74.3l139.5 268.9z" style="clip-path:url(#SVGID_2_);fill:#5abfc6"/><path d="M74.3 2072.2h-279.1l139.5 268.9z" style="clip-path:url(#SVGID_2_);fill:#4bbbbb"/><path d="M2865.3 1803.3h-279.1l139.5 268.9z" style="clip-path:url(#SVGID_2_);fill:#bc801f"/><path d="M2586.2 1803.3h-279.1l139.5 268.9z" style="clip-path:url(#SVGID_2_);fill:#caa71c"/><path d="M2307.1 1803.3H2028l139.5 268.9z" style="clip-path:url(#SVGID_2_);fill:#dab224"/><path d="M2028 1803.3h-279.1l139.5 268.9zM1748.9 1803.3h-279.1l139.5 268.9z" class="st156"/><path d="M1469.8 1803.3h-279.1l139.5 268.9z" style="clip-path:url(#SVGID_2_);fill:#e9c220"/><path d="M1190.7 1803.3H911.6l139.5 268.9z" style="clip-path:url(#SVGID_2_);fill:#dddd35"/><path d="M911.6 1803.3H632.5L772 2072.2z" style="clip-path:url(#SVGID_2_);fill:#a6c83e"/><path d="M632.5 1803.3H353.4l139.5 268.9z" style="clip-path:url(#SVGID_2_);fill:#74b955"/><path d="M353.4 1803.3H74.3l139.5 268.9z" style="clip-path:url(#SVGID_2_);fill:#2b8da0"/><path d="M74.3 1803.3h-279.1l139.5 268.9z" style="clip-path:url(#SVGID_2_);fill:#2c93d1"/><path d="M2865.3 1534.4h-279.1l139.5 268.9z" style="clip-path:url(#SVGID_2_);fill:#b35e1d"/><path d="M2586.2 1534.4h-279.1l139.5 268.9z" style="clip-path:url(#SVGID_2_);fill:#c5771f"/><path d="M2307.1 1534.4H2028l139.5 268.9z" style="clip-path:url(#SVGID_2_);fill:#de8f27"/><path d="M2028 1534.4h-279.1l139.5 268.9z" style="clip-path:url(#SVGID_2_);fill:#ec9530"/><path d="M1748.9 1534.4h-279.1l139.5 268.9z" style="clip-path:url(#SVGID_2_);fill:#db9b1c"/><path d="M1469.8 1534.4h-279.1l139.5 268.9z" style="clip-path:url(#SVGID_2_);fill:#df8823"/><path d="M1190.7 1534.4H911.6l139.5 268.9z" style="clip-path:url(#SVGID_2_);fill:#e0b31f"/><path d="M911.6 1534.4H632.5L772 1803.3z" style="clip-path:url(#SVGID_2_);fill:#d7d236"/><path d="M632.5 1534.4H353.4l139.5 268.9z" style="clip-path:url(#SVGID_2_);fill:#79bd6f"/><path d="M353.4 1534.4H74.3l139.5 268.9z" style="clip-path:url(#SVGID_2_);fill:#1c74b9"/><path d="M74.3 1534.4h-279.1l139.5 268.9z" style="clip-path:url(#SVGID_2_);fill:#2b91d0"/><path d="M2865.3 1265.6h-279.1l139.5 268.8z" style="clip-path:url(#SVGID_2_);fill:#bf7428"/><path d="M2586.2 1265.6h-279.1l139.5 268.8z" style="clip-path:url(#SVGID_2_);fill:#b55a17"/><path d="M2307.1 1265.6H2028l139.5 268.8z" style="clip-path:url(#SVGID_2_);fill:#d5711e"/><path d="M2028 1265.6h-279.1l139.5 268.8z" style="clip-path:url(#SVGID_2_);fill:#da8518"/><path d="M1748.9 1265.6h-279.1l139.5 268.8z" style="clip-path:url(#SVGID_2_);fill:#da5817"/><path d="M1469.8 1265.6h-279.1l139.5 268.8z" style="clip-path:url(#SVGID_2_);fill:#eb7e21"/><path d="M1190.7 1265.6H911.6l139.5 268.8z" style="clip-path:url(#SVGID_2_);fill:#df7324"/><path d="M911.6 1265.6H632.5L772 1534.4z" style="clip-path:url(#SVGID_2_);fill:#ca6260"/><path d="M632.5 1265.6H353.4l139.5 268.8z" style="clip-path:url(#SVGID_2_);fill:#9575b3"/><path d="M353.4 1265.6H74.3l139.5 268.8z" style="clip-path:url(#SVGID_2_);fill:#46519f"/><path d="M74.3 1265.6h-279.1l139.5 268.8z" style="clip-path:url(#SVGID_2_);fill:#424d9c"/><path d="M2865.3 996.7h-279.1l139.5 268.9z" style="clip-path:url(#SVGID_2_);fill:#cd7d1d"/><path d="M2586.2 996.7h-279.1l139.5 268.9z" class="st53"/><path d="M2307.1 996.7H2028l139.5 268.9z" style="clip-path:url(#SVGID_2_);fill:#ec761f"/><path d="M2028 996.7h-279.1l139.5 268.9z" style="clip-path:url(#SVGID_2_);fill:#e24d1a"/><path d="M1748.9 996.7h-279.1l139.5 268.9z" style="clip-path:url(#SVGID_2_);fill:#dc5915"/><path d="M1469.8 996.7h-279.1l139.5 268.9z" style="clip-path:url(#SVGID_2_);fill:#e9592d"/><path d="M1190.7 996.7H911.6l139.5 268.9z" style="clip-path:url(#SVGID_2_);fill:#dd592c"/><path d="M911.6 996.7H632.5L772 1265.6z" style="clip-path:url(#SVGID_2_);fill:#c0376e"/><path d="M632.5 996.7H353.4l139.5 268.9z" style="clip-path:url(#SVGID_2_);fill:#964392"/><path d="M353.4 996.7H74.3l139.5 268.9z" style="clip-path:url(#SVGID_2_);fill:#6f559f"/><path d="M74.3 996.7h-279.1l139.5 268.9z" style="clip-path:url(#SVGID_2_);fill:#524d9b"/><path d="M2865.3 727.8h-279.1l139.5 268.9z" style="clip-path:url(#SVGID_2_);fill:#ca551c"/><path d="M2586.2 727.8h-279.1l139.5 268.9z" style="clip-path:url(#SVGID_2_);fill:#d9581b"/><path d="M2307.1 727.8H2028l139.5 268.9z" style="clip-path:url(#SVGID_2_);fill:#eb5e2b"/><path d="M2028 727.8h-279.1l139.5 268.9z" style="clip-path:url(#SVGID_2_);fill:#ee753f"/><path d="M1748.9 727.8h-279.1l139.5 268.9z" style="clip-path:url(#SVGID_2_);fill:#e73b25"/><path d="M1469.8 727.8h-279.1l139.5 268.9z" style="clip-path:url(#SVGID_2_);fill:#e62f29"/><path d="M1190.7 727.8H911.6l139.5 268.9z" style="clip-path:url(#SVGID_2_);fill:#e32e67"/><path d="M911.6 727.8H632.5L772 996.7z" style="clip-path:url(#SVGID_2_);fill:#c03188"/><path d="M632.5 727.8H353.4l139.5 268.9z" style="clip-path:url(#SVGID_2_);fill:#903f90"/><path d="M353.4 727.8H74.3l139.5 268.9z" style="clip-path:url(#SVGID_2_);fill:#7b3e90"/><path d="M74.3 727.8h-279.1l139.5 268.9z" class="st205"/><path d="M2865.3 458.9h-279.1l139.5 268.9z" style="clip-path:url(#SVGID_2_);fill:#c44220"/><path d="M2586.2 458.9h-279.1l139.5 268.9z" style="clip-path:url(#SVGID_2_);fill:#da5e24"/><path d="M2307.1 458.9H2028l139.5 268.9z" style="clip-path:url(#SVGID_2_);fill:#e65322"/><path d="M2028 458.9h-279.1l139.5 268.9z" style="clip-path:url(#SVGID_2_);fill:#e94836"/><path d="M1748.9 458.9h-279.1l139.5 268.9z" style="clip-path:url(#SVGID_2_);fill:#e2271f"/><path d="M1469.8 458.9h-279.1l139.5 268.9z" style="clip-path:url(#SVGID_2_);fill:#e12132"/><path d="M1190.7 458.9H911.6l139.5 268.9z" style="clip-path:url(#SVGID_2_);fill:#cc1c72"/><path d="M911.6 458.9H632.5L772 727.8z" style="clip-path:url(#SVGID_2_);fill:#ad3089"/><path d="M632.5 458.9H353.4l139.5 268.9z" style="clip-path:url(#SVGID_2_);fill:#974996"/><path d="M353.4 458.9H74.3l139.5 268.9z" style="clip-path:url(#SVGID_2_);fill:#9c4d98"/><path d="M74.3 458.9h-279.1l139.5 268.9z" class="st205"/><path d="M2865.3 190h-279.1l139.5 268.9z" style="clip-path:url(#SVGID_2_);fill:#c44624"/><path d="M2586.2 190h-279.1l139.5 268.9z" style="clip-path:url(#SVGID_2_);fill:#d94a27"/><path d="M2307.1 190H2028l139.5 268.9z" style="clip-path:url(#SVGID_2_);fill:#d0221e"/><path d="M2028 190h-279.1l139.5 268.9z" style="clip-path:url(#SVGID_2_);fill:#d92823"/><path d="M1748.9 190h-279.1l139.5 268.9z" style="clip-path:url(#SVGID_2_);fill:#d62726"/><path d="M1469.8 190h-279.1l139.5 268.9z" style="clip-path:url(#SVGID_2_);fill:#b92350"/><path d="M1190.7 190H911.6l139.5 268.9z" style="clip-path:url(#SVGID_2_);fill:#af236b"/><path d="M911.6 190H632.5L772 458.9z" style="clip-path:url(#SVGID_2_);fill:#a54292"/><path d="M632.5 190H353.4l139.5 268.9z" style="clip-path:url(#SVGID_2_);fill:#853e90"/><path d="M353.4 190H74.3l139.5 268.9z" style="clip-path:url(#SVGID_2_);fill:#88378c"/><path d="M74.3 190h-279.1l139.5 268.9z" style="clip-path:url(#SVGID_2_);fill:#7f2c87"/><path d="M2865.3-78.9h-279.1L2725.7 190z" style="clip-path:url(#SVGID_2_);fill:#962d16"/><path d="M2586.2-78.9h-279.1L2446.6 190z" style="clip-path:url(#SVGID_2_);fill:#ab3f21"/><path d="M2307.1-78.9H2028L2167.5 190z" style="clip-path:url(#SVGID_2_);fill:#cd4030"/><path d="M2028-78.9h-279.1L1888.4 190z" style="clip-path:url(#SVGID_2_);fill:#bf231f"/><path d="M1748.9-78.9h-279.1L1609.3 190z" style="clip-path:url(#SVGID_2_);fill:#c03722"/><path d="M1469.8-78.9h-279.1L1330.2 190z" style="clip-path:url(#SVGID_2_);fill:#ab173b"/><path d="M1190.7-78.9H911.6L1051.1 190z" style="clip-path:url(#SVGID_2_);fill:#8c1957"/><path d="M911.6-78.9H632.5L772 190z" style="clip-path:url(#SVGID_2_);fill:#892981"/><path d="M632.5-78.9H353.4L492.9 190z" style="clip-path:url(#SVGID_2_);fill:#91398d"/><path d="M353.4-78.9H74.3L213.8 190z" style="clip-path:url(#SVGID_2_);fill:#7f368c"/><path d="M74.3-78.9h-279.1L-65.3 190z" style="clip-path:url(#SVGID_2_);fill:#71247e"/></g></svg>