<svg xmlns="http://www.w3.org/2000/svg" xml:space="preserve" width="88" height="112" style="fill-rule:evenodd;clip-rule:evenodd;stroke-linejoin:round;stroke-miterlimit:2" viewBox="0 0 704 896"><path d="M0 0h1024v1024H0z" style="fill:none" transform="translate(-160 -64)"/><path d="M2480.32 476.935s128.8 9.201 204.08-78.125l62.61 20.621s-30.88 74.194-19.97 245.197c-50.36 149.65-70.77 270.864-52.71 329.938 39.92 130.554 100.08 266.444 99.06 358.214-1.02 91.76-51.59 636.32-51.59 636.32s-96.04 29.76-241.48 29.76c-145.45 0-241.49-29.76-241.49-29.76s-50.57-544.56-51.59-636.32c-1.02-91.77 59.14-227.66 99.06-358.214 18.06-59.074-2.35-180.288-52.71-329.938 10.91-171.003-19.97-245.197-19.97-245.197l62.61-20.621c75.28 87.326 204.09 78.125 204.09 78.125" style="fill:#fff" transform="matrix(.54591 0 0 .55307 -1194.04 -220.57)"/><path d="M159.999 43.208s70.314 5.089 111.41-43.209l34.18 11.405S288.73 52.44 294.686 147.015c-27.493 82.767-38.635 149.807-28.775 182.479 21.792 72.205 54.634 147.362 54.078 198.117-.557 50.75-28.164 351.929-28.164 351.929s-52.43 16.459-131.827 16.459c-79.403 0-131.833-16.46-131.833-16.46S.56 578.36.003 527.612c-.557-50.755 32.285-125.912 54.078-198.117 9.86-32.672-1.283-99.712-28.775-182.479 5.956-94.576-10.902-135.61-10.902-135.61L48.584-.002C89.68 48.297 159.999 43.208 159.999 43.208m.005 8.012h-.016c-6.857.345-72.246 2.403-113.861-41.967L24.465 16.48c4.63 16.288 13.282 57.679 8.92 129.486 27.842 84.235 38.41 152.514 28.355 185.839C40.204 403.165 7.45 477.365 8 527.522 8.52 574.135 31.9 832.396 35.63 873.34c14.767 3.943 60.755 14.662 124.37 14.662 63.61 0 109.597-10.719 124.364-14.662 3.729-40.944 27.116-299.205 27.629-345.818.551-50.158-32.203-124.357-53.74-195.717-10.055-33.324.514-101.604 28.355-185.837-4.362-71.809 4.291-113.2 8.92-129.487l-21.662-7.228c-41.614 44.37-107.004 42.312-113.86 41.967M544.002 43.208s70.314 5.089 111.41-43.209l34.18 11.405S672.733 52.44 678.69 147.015c-27.493 82.767-38.635 149.807-28.775 182.479 21.792 72.205 54.634 147.362 54.078 198.117-.557 50.75-28.164 351.929-28.164 351.929s-52.43 16.459-131.827 16.459c-79.403 0-131.833-16.46-131.833-16.46s-27.606-301.179-28.163-351.928c-.557-50.755 32.285-125.912 54.078-198.117 9.86-32.672-1.283-99.712-28.775-182.479 5.956-94.576-10.902-135.61-10.902-135.61l34.18-11.406c41.096 48.298 111.415 43.209 111.415 43.209"/><path d="M2480.32 476.935s128.8 9.201 204.08-78.125l62.61 20.621s-30.88 74.194-19.97 245.197c-50.36 149.65-70.77 270.864-52.71 329.938 39.92 130.554 100.08 266.444 99.06 358.214-1.02 91.76-51.59 636.32-51.59 636.32s-96.04 29.76-241.48 29.76c-145.45 0-241.49-29.76-241.49-29.76s-50.57-544.56-51.59-636.32c-1.02-91.77 59.14-227.66 99.06-358.214 18.06-59.074-2.35-180.288-52.71-329.938 10.91-171.003-19.97-245.197-19.97-245.197l62.61-20.621c75.28 87.326 204.09 78.125 204.09 78.125m.01 14.487h-.03c-12.56.624-132.34 4.344-208.57-75.881l-39.68 13.068c8.48 29.45 24.33 104.288 16.34 234.122 51 152.304 70.36 275.76 51.94 336.014-39.45 129.025-99.45 263.185-98.44 353.875.95 84.28 43.78 551.24 50.61 625.27 27.05 7.13 111.29 26.51 227.82 26.51 116.52 0 200.76-19.38 227.81-26.51 6.83-74.03 49.67-540.99 50.61-625.27 1.01-90.69-58.99-224.85-98.44-353.875-18.42-60.253.94-183.71 51.94-336.011-7.99-129.836 7.86-204.675 16.34-234.124l-39.68-13.069c-76.23 80.227-196.01 76.505-208.57 75.881" style="fill:#fff" transform="matrix(.54591 0 0 .55307 -810.037 -220.57)"/></svg>