<?xml version="1.0" encoding="UTF-8" standalone="no"?>
<!DOCTYPE svg PUBLIC "-//W3C//DTD SVG 1.1//EN" "http://www.w3.org/Graphics/SVG/1.1/DTD/svg11.dtd">
<svg width="88" height="112" viewBox="0 0 704 896" version="1.1" xmlns="http://www.w3.org/2000/svg"
	xmlns:xlink="http://www.w3.org/1999/xlink" xml:space="preserve" xmlns:serif="http://www.serif.com/"
	style="fill-rule:evenodd;clip-rule:evenodd;stroke-linejoin:round;stroke-miterlimit:2;">
	<g transform="matrix(1,0,0,1,-160,-64)">
		<rect id="dress" x="0" y="0" width="1024" height="1024" style="fill:none;" />
		<g id="dress1" serif:id="dress">
			<g transform="matrix(0.545913,0,0,0.553069,-1034.04,-156.57)">
				<path
					d="M2480.32,476.935C2480.32,476.935 2609.12,486.136 2684.4,398.81L2747.01,419.431C2747.01,419.431 2716.13,493.625 2727.04,664.628C2676.68,814.278 2656.27,935.492 2674.33,994.566C2714.25,1125.12 2774.41,1261.01 2773.39,1352.78C2772.37,1444.54 2721.8,1989.1 2721.8,1989.1C2721.8,1989.1 2625.76,2018.86 2480.32,2018.86C2334.87,2018.86 2238.83,1989.1 2238.83,1989.1C2238.83,1989.1 2188.26,1444.54 2187.24,1352.78C2186.22,1261.01 2246.38,1125.12 2286.3,994.566C2304.36,935.492 2283.95,814.278 2233.59,664.628C2244.5,493.625 2213.62,419.431 2213.62,419.431L2276.23,398.81C2351.51,486.136 2480.32,476.935 2480.32,476.935Z"
					style="fill:white;" />
				<path
					d="M2480.32,476.935C2480.32,476.935 2609.12,486.136 2684.4,398.81L2747.01,419.431C2747.01,419.431 2716.13,493.625 2727.04,664.628C2676.68,814.278 2656.27,935.492 2674.33,994.566C2714.25,1125.12 2774.41,1261.01 2773.39,1352.78C2772.37,1444.54 2721.8,1989.1 2721.8,1989.1C2721.8,1989.1 2625.76,2018.86 2480.32,2018.86C2334.87,2018.86 2238.83,1989.1 2238.83,1989.1C2238.83,1989.1 2188.26,1444.54 2187.24,1352.78C2186.22,1261.01 2246.38,1125.12 2286.3,994.566C2304.36,935.492 2283.95,814.278 2233.59,664.628C2244.5,493.625 2213.62,419.431 2213.62,419.431L2276.23,398.81C2351.51,486.136 2480.32,476.935 2480.32,476.935ZM2480.33,491.422L2480.3,491.422C2467.74,492.046 2347.96,495.766 2271.73,415.541C2271.73,415.541 2232.05,428.61 2232.05,428.609C2240.53,458.059 2256.38,532.897 2248.39,662.731C2299.39,815.035 2318.75,938.491 2300.33,998.745C2260.88,1127.77 2200.88,1261.93 2201.89,1352.62C2202.84,1436.9 2245.67,1903.86 2252.5,1977.89C2279.55,1985.02 2363.79,2004.4 2480.32,2004.4C2596.84,2004.4 2681.08,1985.02 2708.13,1977.89C2714.96,1903.86 2757.8,1436.9 2758.74,1352.62C2759.75,1261.93 2699.75,1127.77 2660.3,998.745C2641.88,938.492 2661.24,815.035 2712.24,662.734C2704.25,532.898 2720.1,458.059 2728.58,428.61C2728.58,428.61 2688.9,415.541 2688.9,415.541C2612.67,495.768 2492.89,492.046 2480.33,491.422Z" />
			</g>
			<g transform="matrix(0.545913,0,0,0.553069,-650.037,-156.57)">
				<path
					d="M2480.32,476.935C2480.32,476.935 2609.12,486.136 2684.4,398.81L2747.01,419.431C2747.01,419.431 2716.13,493.625 2727.04,664.628C2676.68,814.278 2656.27,935.492 2674.33,994.566C2714.25,1125.12 2774.41,1261.01 2773.39,1352.78C2772.37,1444.54 2721.8,1989.1 2721.8,1989.1C2721.8,1989.1 2625.76,2018.86 2480.32,2018.86C2334.87,2018.86 2238.83,1989.1 2238.83,1989.1C2238.83,1989.1 2188.26,1444.54 2187.24,1352.78C2186.22,1261.01 2246.38,1125.12 2286.3,994.566C2304.36,935.492 2283.95,814.278 2233.59,664.628C2244.5,493.625 2213.62,419.431 2213.62,419.431L2276.23,398.81C2351.51,486.136 2480.32,476.935 2480.32,476.935Z" />
				<path
					d="M2480.32,476.935C2480.32,476.935 2609.12,486.136 2684.4,398.81L2747.01,419.431C2747.01,419.431 2716.13,493.625 2727.04,664.628C2676.68,814.278 2656.27,935.492 2674.33,994.566C2714.25,1125.12 2774.41,1261.01 2773.39,1352.78C2772.37,1444.54 2721.8,1989.1 2721.8,1989.1C2721.8,1989.1 2625.76,2018.86 2480.32,2018.86C2334.87,2018.86 2238.83,1989.1 2238.83,1989.1C2238.83,1989.1 2188.26,1444.54 2187.24,1352.78C2186.22,1261.01 2246.38,1125.12 2286.3,994.566C2304.36,935.492 2283.95,814.278 2233.59,664.628C2244.5,493.625 2213.62,419.431 2213.62,419.431L2276.23,398.81C2351.51,486.136 2480.32,476.935 2480.32,476.935ZM2480.33,491.422L2480.3,491.422C2467.74,492.046 2347.96,495.766 2271.73,415.541C2271.73,415.541 2232.05,428.61 2232.05,428.609C2240.53,458.059 2256.38,532.897 2248.39,662.731C2299.39,815.035 2318.75,938.491 2300.33,998.745C2260.88,1127.77 2200.88,1261.93 2201.89,1352.62C2202.84,1436.9 2245.67,1903.86 2252.5,1977.89C2279.55,1985.02 2363.79,2004.4 2480.32,2004.4C2596.84,2004.4 2681.08,1985.02 2708.13,1977.89C2714.96,1903.86 2757.8,1436.9 2758.74,1352.62C2759.75,1261.93 2699.75,1127.77 2660.3,998.745C2641.88,938.492 2661.24,815.035 2712.24,662.734C2704.25,532.898 2720.1,458.059 2728.58,428.61C2728.58,428.61 2688.9,415.541 2688.9,415.541C2612.67,495.768 2492.89,492.046 2480.33,491.422Z"
					style="fill:white;" />
			</g>
		</g>
	</g>
</svg>