<svg xmlns="http://www.w3.org/2000/svg" xml:space="preserve" width="21" height="57" style="fill-rule:evenodd;clip-rule:evenodd;stroke-linejoin:round;stroke-miterlimit:2" viewBox="-8 -8 338 904"><style>#dress{stroke:#000;stroke-width:32px;stroke-linecap:round;stroke-linejoin:round;fill:#fff}#bg{fill:#f2f2f2}@media (prefers-color-scheme:dark){#dress{stroke:#fff;fill:#000}#bg{fill:#262626}}</style><g transform="translate(-544 -64)"><path id="bg" d="M0 0h1024v1024H0z"/><g id="dress1" transform="matrix(.54591 0 0 .55307 -650.037 -156.57)"><path id="dress" d="M2480.32 476.935s128.8 9.201 204.08-78.125l62.61 20.621s-30.88 74.194-19.97 245.197c-50.36 149.65-70.77 270.864-52.71 329.938 39.92 130.554 100.08 266.444 99.06 358.214-1.02 91.76-51.59 636.32-51.59 636.32s-96.04 29.76-241.48 29.76c-145.45 0-241.49-29.76-241.49-29.76s-50.57-544.56-51.59-636.32c-1.02-91.77 59.14-227.66 99.06-358.214 18.06-59.074-2.35-180.288-52.71-329.938 10.91-171.003-19.97-245.197-19.97-245.197l62.61-20.621c75.28 87.326 204.09 78.125 204.09 78.125"/></g></g></svg>